<?xml version="1.0" encoding="UTF-8" standalone="no"?>
<!DOCTYPE svg PUBLIC "-//W3C//DTD SVG 1.1//EN"
 "http://www.w3.org/Graphics/SVG/1.1/DTD/svg11.dtd">
<!-- Generated by graphviz version 8.1.0 (20230707.0739)
 -->
<!-- Pages: 1 -->
<svg width="138pt" height="188pt"
 viewBox="0.00 0.00 138.34 188.00" xmlns="http://www.w3.org/2000/svg" xmlns:xlink="http://www.w3.org/1999/xlink">
<g id="graph0" class="graph" transform="scale(1 1) rotate(0) translate(4 184)">
<polygon fill="white" stroke="none" points="-4,4 -4,-184 134.34,-184 134.34,4 -4,4"/>
<!-- height -->
<g id="node1" class="node">
<title>height</title>
<ellipse fill="lightgrey" stroke="black" cx="39" cy="-90" rx="33.95" ry="18"/>
<text text-anchor="middle" x="39" y="-84.95" font-family="Times,serif" font-size="14.00">height</text>
</g>
<!-- weight -->
<g id="node2" class="node">
<title>weight</title>
<ellipse fill="lightgrey" stroke="black" cx="70" cy="-18" rx="36" ry="18"/>
<text text-anchor="middle" x="70" y="-12.95" font-family="Times,serif" font-size="14.00">weight</text>
</g>
<!-- height&#45;&gt;weight -->
<g id="edge1" class="edge">
<title>height&#45;&gt;weight</title>
<path fill="none" stroke="black" d="M46.5,-72.05C50.01,-64.14 54.26,-54.54 58.18,-45.69"/>
<polygon fill="black" stroke="black" points="61.72,-47.35 62.56,-36.79 55.32,-44.52 61.72,-47.35"/>
</g>
<!-- male -->
<g id="node3" class="node">
<title>male</title>
<ellipse fill="lightgrey" stroke="black" cx="101" cy="-162" rx="29.34" ry="18"/>
<text text-anchor="middle" x="101" y="-156.95" font-family="Times,serif" font-size="14.00">male</text>
</g>
<!-- male&#45;&gt;height -->
<g id="edge3" class="edge">
<title>male&#45;&gt;height</title>
<path fill="none" stroke="black" d="M87.55,-145.81C79.53,-136.76 69.19,-125.08 60.11,-114.83"/>
<polygon fill="black" stroke="black" points="63.11,-112.81 53.86,-107.64 57.87,-117.45 63.11,-112.81"/>
</g>
<!-- male&#45;&gt;weight -->
<g id="edge4" class="edge">
<title>male&#45;&gt;weight</title>
<path fill="none" stroke="black" d="M97.42,-143.92C93.65,-126 87.5,-97 82,-72 80.19,-63.76 78.18,-54.82 76.33,-46.66"/>
<polygon fill="black" stroke="black" points="79.58,-46.15 73.94,-37.17 72.75,-47.7 79.58,-46.15"/>
</g>
<!-- age -->
<g id="node4" class="node">
<title>age</title>
<ellipse fill="lightgrey" stroke="black" cx="27" cy="-162" rx="27" ry="18"/>
<text text-anchor="middle" x="27" y="-156.95" font-family="Times,serif" font-size="14.00">age</text>
</g>
<!-- age&#45;&gt;height -->
<g id="edge2" class="edge">
<title>age&#45;&gt;height</title>
<path fill="none" stroke="black" d="M29.97,-143.7C31.26,-136.15 32.81,-127.12 34.25,-118.68"/>
<polygon fill="black" stroke="black" points="37.83,-119.55 36.07,-109.1 30.93,-118.37 37.83,-119.55"/>
</g>
</g>
</svg>
