<?xml version="1.0" encoding="UTF-8" standalone="no"?>
<!DOCTYPE svg PUBLIC "-//W3C//DTD SVG 1.1//EN"
 "http://www.w3.org/Graphics/SVG/1.1/DTD/svg11.dtd">
<!-- Generated by graphviz version 9.0.0 (20230911.1827)
 -->
<!-- Pages: 1 -->
<svg width="1308pt" height="415pt"
 viewBox="0.00 0.00 1307.66 415.00" xmlns="http://www.w3.org/2000/svg" xmlns:xlink="http://www.w3.org/1999/xlink">
<g id="graph0" class="graph" transform="scale(1 1) rotate(0) translate(4 411)">
<polygon fill="white" stroke="none" points="-4,4 -4,-411 1303.66,-411 1303.66,4 -4,4"/>
<g id="clust1" class="cluster">
<title>cluster_data</title>
<polygon fill="none" stroke="black" points="536.16,-8 536.16,-84.5 606.16,-84.5 606.16,-8 536.16,-8"/>
<text text-anchor="middle" x="586.91" y="-15.2" font-family="Times,serif" font-size="14.00">data</text>
</g>
<!-- intercept -->
<g id="node1" class="node">
<title>intercept</title>
<ellipse fill="white" stroke="black" cx="43.16" cy="-130.5" rx="43.16" ry="18"/>
<text text-anchor="middle" x="43.16" y="-125.45" font-family="Times,serif" font-size="14.00">intercept</text>
</g>
<!-- obs -->
<g id="node13" class="node">
<title>obs</title>
<ellipse fill="grey" stroke="black" cx="571.16" cy="-58.5" rx="27" ry="18"/>
<text text-anchor="middle" x="571.16" y="-53.45" font-family="Times,serif" font-size="14.00">obs</text>
</g>
<!-- intercept&#45;&gt;obs -->
<g id="edge2" class="edge">
<title>intercept&#45;&gt;obs</title>
<path fill="none" stroke="black" d="M75.06,-117.94C81.64,-115.87 88.57,-113.93 95.16,-112.5 255.33,-77.79 451.02,-65.11 532.59,-61.11"/>
<polygon fill="black" stroke="black" points="532.67,-64.61 542.5,-60.65 532.34,-57.62 532.67,-64.61"/>
</g>
<!-- b_t -->
<g id="node2" class="node">
<title>b_t</title>
<ellipse fill="white" stroke="black" cx="131.16" cy="-130.5" rx="27" ry="18"/>
<text text-anchor="middle" x="131.16" y="-125.45" font-family="Times,serif" font-size="14.00">b_t</text>
</g>
<!-- b_t&#45;&gt;obs -->
<g id="edge3" class="edge">
<title>b_t&#45;&gt;obs</title>
<path fill="none" stroke="black" d="M151.67,-118.48C156.63,-116.19 161.99,-114.02 167.16,-112.5 297.67,-74.15 460.07,-63.51 532.81,-60.59"/>
<polygon fill="black" stroke="black" points="532.72,-64.09 542.59,-60.22 532.46,-57.1 532.72,-64.09"/>
</g>
<!-- b_hum -->
<g id="node3" class="node">
<title>b_hum</title>
<ellipse fill="white" stroke="black" cx="213.16" cy="-130.5" rx="37.02" ry="18"/>
<text text-anchor="middle" x="213.16" y="-125.45" font-family="Times,serif" font-size="14.00">b_hum</text>
</g>
<!-- b_hum&#45;&gt;obs -->
<g id="edge4" class="edge">
<title>b_hum&#45;&gt;obs</title>
<path fill="none" stroke="black" d="M241.11,-118.23C247.01,-116.12 253.24,-114.08 259.16,-112.5 356.25,-86.56 473.86,-70.63 533.12,-63.65"/>
<polygon fill="black" stroke="black" points="533.47,-67.13 543.01,-62.51 532.67,-60.18 533.47,-67.13"/>
</g>
<!-- b_windspeed -->
<g id="node4" class="node">
<title>b_windspeed</title>
<ellipse fill="white" stroke="black" cx="328.16" cy="-130.5" rx="59.54" ry="18"/>
<text text-anchor="middle" x="328.16" y="-125.45" font-family="Times,serif" font-size="14.00">b_windspeed</text>
</g>
<!-- b_windspeed&#45;&gt;obs -->
<g id="edge5" class="edge">
<title>b_windspeed&#45;&gt;obs</title>
<path fill="none" stroke="black" d="M370.21,-117.39C416.97,-103.92 491.69,-82.39 535.64,-69.73"/>
<polygon fill="black" stroke="black" points="536.55,-73.11 545.19,-66.98 534.61,-66.39 536.55,-73.11"/>
</g>
<!-- b_holiday -->
<g id="node5" class="node">
<title>b_holiday</title>
<ellipse fill="white" stroke="black" cx="453.16" cy="-130.5" rx="47.77" ry="18"/>
<text text-anchor="middle" x="453.16" y="-125.45" font-family="Times,serif" font-size="14.00">b_holiday</text>
</g>
<!-- b_holiday&#45;&gt;obs -->
<g id="edge6" class="edge">
<title>b_holiday&#45;&gt;obs</title>
<path fill="none" stroke="black" d="M477.9,-114.83C496.55,-103.76 522.18,-88.56 541.85,-76.89"/>
<polygon fill="black" stroke="black" points="543.41,-80.03 550.23,-71.92 539.84,-74.01 543.41,-80.03"/>
</g>
<!-- b_workday -->
<g id="node6" class="node">
<title>b_workday</title>
<ellipse fill="white" stroke="black" cx="571.16" cy="-130.5" rx="52.38" ry="18"/>
<text text-anchor="middle" x="571.16" y="-125.45" font-family="Times,serif" font-size="14.00">b_workday</text>
</g>
<!-- b_workday&#45;&gt;obs -->
<g id="edge7" class="edge">
<title>b_workday&#45;&gt;obs</title>
<path fill="none" stroke="black" d="M571.16,-112.2C571.16,-104.91 571.16,-96.23 571.16,-88.04"/>
<polygon fill="black" stroke="black" points="574.66,-88.12 571.16,-78.12 567.66,-88.12 574.66,-88.12"/>
</g>
<!-- b_weathersit -->
<g id="node7" class="node">
<title>b_weathersit</title>
<ellipse fill="white" stroke="black" cx="699.16" cy="-130.5" rx="58" ry="18"/>
<text text-anchor="middle" x="699.16" y="-125.45" font-family="Times,serif" font-size="14.00">b_weathersit</text>
</g>
<!-- b_weathersit&#45;&gt;obs -->
<g id="edge8" class="edge">
<title>b_weathersit&#45;&gt;obs</title>
<path fill="none" stroke="black" d="M671.39,-114.31C650.88,-103.1 622.98,-87.84 601.82,-76.27"/>
<polygon fill="black" stroke="black" points="603.52,-73.21 593.07,-71.48 600.17,-79.35 603.52,-73.21"/>
</g>
<!-- b_eoy -->
<g id="node8" class="node">
<title>b_eoy</title>
<ellipse fill="white" stroke="black" cx="808.16" cy="-130.5" rx="33.44" ry="18"/>
<text text-anchor="middle" x="808.16" y="-125.45" font-family="Times,serif" font-size="14.00">b_eoy</text>
</g>
<!-- b_eoy&#45;&gt;obs -->
<g id="edge9" class="edge">
<title>b_eoy&#45;&gt;obs</title>
<path fill="none" stroke="black" d="M782.58,-118.58C777.2,-116.44 771.53,-114.31 766.16,-112.5 711.66,-94.14 647,-77.56 607.54,-68.01"/>
<polygon fill="black" stroke="black" points="608.39,-64.62 597.85,-65.69 606.76,-71.42 608.39,-64.62"/>
</g>
<!-- sigma -->
<g id="node9" class="node">
<title>sigma</title>
<ellipse fill="white" stroke="black" cx="893.16" cy="-130.5" rx="33.44" ry="18"/>
<text text-anchor="middle" x="893.16" y="-125.45" font-family="Times,serif" font-size="14.00">sigma</text>
</g>
<!-- sigma&#45;&gt;obs -->
<g id="edge10" class="edge">
<title>sigma&#45;&gt;obs</title>
<path fill="none" stroke="black" d="M867.52,-118.45C861.87,-116.27 855.87,-114.15 850.16,-112.5 765.46,-87.95 662.91,-71.83 608.81,-64.35"/>
<polygon fill="black" stroke="black" points="609.59,-60.92 599.21,-63.04 608.65,-67.86 609.59,-60.92"/>
</g>
<!-- df -->
<g id="node10" class="node">
<title>df</title>
<ellipse fill="white" stroke="black" cx="971.16" cy="-130.5" rx="27" ry="18"/>
<text text-anchor="middle" x="971.16" y="-125.45" font-family="Times,serif" font-size="14.00">df</text>
</g>
<!-- df&#45;&gt;obs -->
<g id="edge11" class="edge">
<title>df&#45;&gt;obs</title>
<path fill="none" stroke="black" d="M950.64,-118.53C945.68,-116.24 940.32,-114.06 935.16,-112.5 819.81,-77.71 676.77,-65.41 609.51,-61.35"/>
<polygon fill="black" stroke="black" points="609.94,-57.87 599.75,-60.79 609.54,-64.86 609.94,-57.87"/>
</g>
<!-- sigma_pi -->
<g id="node11" class="node">
<title>sigma_pi</title>
<ellipse fill="white" stroke="black" cx="1043.16" cy="-295.75" rx="45.21" ry="18"/>
<text text-anchor="middle" x="1043.16" y="-290.7" font-family="Times,serif" font-size="14.00">sigma_pi</text>
</g>
<!-- pi -->
<g id="node12" class="node">
<title>pi</title>
<ellipse fill="white" stroke="black" cx="1043.16" cy="-130.5" rx="27" ry="18"/>
<text text-anchor="middle" x="1043.16" y="-125.45" font-family="Times,serif" font-size="14.00">pi</text>
</g>
<!-- sigma_pi&#45;&gt;pi -->
<g id="edge1" class="edge">
<title>sigma_pi&#45;&gt;pi</title>
<path fill="none" stroke="black" d="M1043.16,-277.28C1043.16,-249.3 1043.16,-194.13 1043.16,-160.27"/>
<polygon fill="black" stroke="black" points="1046.66,-160.36 1043.16,-150.36 1039.66,-160.36 1046.66,-160.36"/>
</g>
<!-- pi&#45;&gt;obs -->
<g id="edge12" class="edge">
<title>pi&#45;&gt;obs</title>
<path fill="none" stroke="black" d="M1022.66,-118.44C1017.71,-116.16 1012.34,-114 1007.16,-112.5 864.49,-71.31 686.56,-62.12 609.59,-60.08"/>
<polygon fill="black" stroke="black" points="610.15,-56.59 600.07,-59.85 609.98,-63.59 610.15,-56.59"/>
</g>
<!-- distribution_description_node -->
<g id="node14" class="node">
<title>distribution_description_node</title>
<text text-anchor="start" x="1114.66" y="-389.7" font-family="Times,serif" font-size="14.00">intercept ~ Normal</text>
<text text-anchor="start" x="1114.66" y="-373.2" font-family="Times,serif" font-size="14.00">b_t ~ Normal</text>
<text text-anchor="start" x="1114.66" y="-356.7" font-family="Times,serif" font-size="14.00">b_hum ~ Normal</text>
<text text-anchor="start" x="1114.66" y="-340.2" font-family="Times,serif" font-size="14.00">b_windspeed ~ Normal</text>
<text text-anchor="start" x="1114.66" y="-323.7" font-family="Times,serif" font-size="14.00">b_holiday ~ ZeroSumNormal</text>
<text text-anchor="start" x="1114.66" y="-307.2" font-family="Times,serif" font-size="14.00">b_workday ~ ZeroSumNormal</text>
<text text-anchor="start" x="1114.66" y="-290.7" font-family="Times,serif" font-size="14.00">b_weathersit ~ ZeroSumNormal</text>
<text text-anchor="start" x="1114.66" y="-274.2" font-family="Times,serif" font-size="14.00">b_eoy ~ Normal</text>
<text text-anchor="start" x="1114.66" y="-257.7" font-family="Times,serif" font-size="14.00">sigma ~ HalfNormal</text>
<text text-anchor="start" x="1114.66" y="-241.2" font-family="Times,serif" font-size="14.00">df ~ Gamma</text>
<text text-anchor="start" x="1114.66" y="-224.7" font-family="Times,serif" font-size="14.00">sigma_pi ~ Exponential</text>
<text text-anchor="start" x="1114.66" y="-208.2" font-family="Times,serif" font-size="14.00">pi ~ GaussianRandomWalk</text>
<text text-anchor="start" x="1114.66" y="-191.7" font-family="Times,serif" font-size="14.00">obs ~ StudentT</text>
</g>
</g>
</svg>
