<?xml version="1.0" encoding="UTF-8" standalone="no"?>
<!DOCTYPE svg PUBLIC "-//W3C//DTD SVG 1.1//EN"
 "http://www.w3.org/Graphics/SVG/1.1/DTD/svg11.dtd">
<!-- Generated by graphviz version 9.0.0 (20230911.1827)
 -->
<!-- Pages: 1 -->
<svg width="1229pt" height="310pt"
 viewBox="0.00 0.00 1228.66 310.00" xmlns="http://www.w3.org/2000/svg" xmlns:xlink="http://www.w3.org/1999/xlink">
<g id="graph0" class="graph" transform="scale(1 1) rotate(0) translate(4 306)">
<polygon fill="white" stroke="none" points="-4,4 -4,-306 1224.66,-306 1224.66,4 -4,4"/>
<g id="clust1" class="cluster">
<title>cluster_data</title>
<polygon fill="none" stroke="black" points="451.16,-8 451.16,-84.5 521.16,-84.5 521.16,-8 451.16,-8"/>
<text text-anchor="middle" x="501.91" y="-15.2" font-family="Times,serif" font-size="14.00">data</text>
</g>
<!-- intercept -->
<g id="node1" class="node">
<title>intercept</title>
<ellipse fill="white" stroke="black" cx="43.16" cy="-207.25" rx="43.16" ry="18"/>
<text text-anchor="middle" x="43.16" y="-202.2" font-family="Times,serif" font-size="14.00">intercept</text>
</g>
<!-- obs -->
<g id="node11" class="node">
<title>obs</title>
<ellipse fill="grey" stroke="black" cx="486.16" cy="-58.5" rx="27" ry="18"/>
<text text-anchor="middle" x="486.16" y="-53.45" font-family="Times,serif" font-size="14.00">obs</text>
</g>
<!-- intercept&#45;&gt;obs -->
<g id="edge1" class="edge">
<title>intercept&#45;&gt;obs</title>
<path fill="none" stroke="black" d="M47.52,-189.18C54.01,-167.52 68.43,-130.77 95.16,-112.5 151.95,-73.69 360.22,-63.16 447.39,-60.42"/>
<polygon fill="black" stroke="black" points="447.45,-63.92 457.35,-60.12 447.25,-56.92 447.45,-63.92"/>
</g>
<!-- b_t -->
<g id="node2" class="node">
<title>b_t</title>
<ellipse fill="white" stroke="black" cx="131.16" cy="-207.25" rx="27" ry="18"/>
<text text-anchor="middle" x="131.16" y="-202.2" font-family="Times,serif" font-size="14.00">b_t</text>
</g>
<!-- b_t&#45;&gt;obs -->
<g id="edge2" class="edge">
<title>b_t&#45;&gt;obs</title>
<path fill="none" stroke="black" d="M132.69,-189.09C135.57,-167.68 143.79,-131.57 167.16,-112.5 209.59,-77.88 372.57,-65.25 447.76,-61.2"/>
<polygon fill="black" stroke="black" points="447.72,-64.7 457.53,-60.69 447.36,-57.71 447.72,-64.7"/>
</g>
<!-- b_temp -->
<g id="node3" class="node">
<title>b_temp</title>
<ellipse fill="white" stroke="black" cx="215.16" cy="-207.25" rx="39.07" ry="18"/>
<text text-anchor="middle" x="215.16" y="-202.2" font-family="Times,serif" font-size="14.00">b_temp</text>
</g>
<!-- b_temp&#45;&gt;obs -->
<g id="edge3" class="edge">
<title>b_temp&#45;&gt;obs</title>
<path fill="none" stroke="black" d="M219.28,-188.87C225.26,-167.56 238.42,-131.92 263.16,-112.5 316.98,-70.26 399.09,-60.85 447.22,-59.23"/>
<polygon fill="black" stroke="black" points="447.26,-62.73 457.17,-59 447.1,-55.73 447.26,-62.73"/>
</g>
<!-- b_hum -->
<g id="node4" class="node">
<title>b_hum</title>
<ellipse fill="white" stroke="black" cx="309.16" cy="-207.25" rx="37.02" ry="18"/>
<text text-anchor="middle" x="309.16" y="-202.2" font-family="Times,serif" font-size="14.00">b_hum</text>
</g>
<!-- b_hum&#45;&gt;obs -->
<g id="edge4" class="edge">
<title>b_hum&#45;&gt;obs</title>
<path fill="none" stroke="black" d="M313.5,-189.09C319.57,-168.36 332.47,-133.62 355.16,-112.5 381.44,-88.04 420.48,-74.23 449.11,-66.88"/>
<polygon fill="black" stroke="black" points="449.91,-70.29 458.82,-64.55 448.28,-63.48 449.91,-70.29"/>
</g>
<!-- b_windspeed -->
<g id="node5" class="node">
<title>b_windspeed</title>
<ellipse fill="white" stroke="black" cx="424.16" cy="-207.25" rx="59.54" ry="18"/>
<text text-anchor="middle" x="424.16" y="-202.2" font-family="Times,serif" font-size="14.00">b_windspeed</text>
</g>
<!-- b_windspeed&#45;&gt;obs -->
<g id="edge5" class="edge">
<title>b_windspeed&#45;&gt;obs</title>
<path fill="none" stroke="black" d="M431.4,-189.13C442.05,-163.92 462.05,-116.57 474.71,-86.61"/>
<polygon fill="black" stroke="black" points="477.91,-88.03 478.58,-77.46 471.46,-85.31 477.91,-88.03"/>
</g>
<!-- b_holiday -->
<g id="node6" class="node">
<title>b_holiday</title>
<ellipse fill="white" stroke="black" cx="549.16" cy="-207.25" rx="47.77" ry="18"/>
<text text-anchor="middle" x="549.16" y="-202.2" font-family="Times,serif" font-size="14.00">b_holiday</text>
</g>
<!-- b_holiday&#45;&gt;obs -->
<g id="edge6" class="edge">
<title>b_holiday&#45;&gt;obs</title>
<path fill="none" stroke="black" d="M541.81,-189.13C530.99,-163.92 510.66,-116.57 497.8,-86.61"/>
<polygon fill="black" stroke="black" points="501.03,-85.26 493.87,-77.45 494.6,-88.02 501.03,-85.26"/>
</g>
<!-- b_workday -->
<g id="node7" class="node">
<title>b_workday</title>
<ellipse fill="white" stroke="black" cx="667.16" cy="-207.25" rx="52.38" ry="18"/>
<text text-anchor="middle" x="667.16" y="-202.2" font-family="Times,serif" font-size="14.00">b_workday</text>
</g>
<!-- b_workday&#45;&gt;obs -->
<g id="edge7" class="edge">
<title>b_workday&#45;&gt;obs</title>
<path fill="none" stroke="black" d="M659.82,-189.22C650.17,-168.62 631.45,-134.02 606.16,-112.5 581.53,-91.55 547.31,-77.53 521.71,-69.2"/>
<polygon fill="black" stroke="black" points="523.01,-65.94 512.42,-66.33 520.93,-72.63 523.01,-65.94"/>
</g>
<!-- b_weathersit -->
<g id="node8" class="node">
<title>b_weathersit</title>
<ellipse fill="white" stroke="black" cx="795.16" cy="-207.25" rx="58" ry="18"/>
<text text-anchor="middle" x="795.16" y="-202.2" font-family="Times,serif" font-size="14.00">b_weathersit</text>
</g>
<!-- b_weathersit&#45;&gt;obs -->
<g id="edge8" class="edge">
<title>b_weathersit&#45;&gt;obs</title>
<path fill="none" stroke="black" d="M787.71,-189.08C777.5,-167.67 757.06,-131.55 728.16,-112.5 665.34,-71.07 575.34,-61.52 524.66,-59.62"/>
<polygon fill="black" stroke="black" points="524.88,-56.12 514.78,-59.34 524.68,-63.12 524.88,-56.12"/>
</g>
<!-- sigma -->
<g id="node9" class="node">
<title>sigma</title>
<ellipse fill="white" stroke="black" cx="904.16" cy="-207.25" rx="33.44" ry="18"/>
<text text-anchor="middle" x="904.16" y="-202.2" font-family="Times,serif" font-size="14.00">sigma</text>
</g>
<!-- sigma&#45;&gt;obs -->
<g id="edge9" class="edge">
<title>sigma&#45;&gt;obs</title>
<path fill="none" stroke="black" d="M901.56,-188.92C897.33,-167.34 886.82,-131.05 862.16,-112.5 809.51,-72.9 609.85,-62.83 524.85,-60.32"/>
<polygon fill="black" stroke="black" points="525.01,-56.82 514.92,-60.04 524.82,-63.82 525.01,-56.82"/>
</g>
<!-- df -->
<g id="node10" class="node">
<title>df</title>
<ellipse fill="white" stroke="black" cx="982.16" cy="-207.25" rx="27" ry="18"/>
<text text-anchor="middle" x="982.16" y="-202.2" font-family="Times,serif" font-size="14.00">df</text>
</g>
<!-- df&#45;&gt;obs -->
<g id="edge10" class="edge">
<title>df&#45;&gt;obs</title>
<path fill="none" stroke="black" d="M980.78,-188.9C978.06,-167.3 970,-130.98 946.16,-112.5 880.83,-61.85 623.56,-58.38 524.93,-58.97"/>
<polygon fill="black" stroke="black" points="524.93,-55.47 514.96,-59.05 524.99,-62.47 524.93,-55.47"/>
</g>
<!-- distribution_description_node -->
<g id="node12" class="node">
<title>distribution_description_node</title>
<text text-anchor="start" x="1035.66" y="-284.7" font-family="Times,serif" font-size="14.00">intercept ~ Normal</text>
<text text-anchor="start" x="1035.66" y="-268.2" font-family="Times,serif" font-size="14.00">b_t ~ Normal</text>
<text text-anchor="start" x="1035.66" y="-251.7" font-family="Times,serif" font-size="14.00">b_temp ~ Normal</text>
<text text-anchor="start" x="1035.66" y="-235.2" font-family="Times,serif" font-size="14.00">b_hum ~ Normal</text>
<text text-anchor="start" x="1035.66" y="-218.7" font-family="Times,serif" font-size="14.00">b_windspeed ~ Normal</text>
<text text-anchor="start" x="1035.66" y="-202.2" font-family="Times,serif" font-size="14.00">b_holiday ~ ZeroSumNormal</text>
<text text-anchor="start" x="1035.66" y="-185.7" font-family="Times,serif" font-size="14.00">b_workday ~ ZeroSumNormal</text>
<text text-anchor="start" x="1035.66" y="-169.2" font-family="Times,serif" font-size="14.00">b_weathersit ~ ZeroSumNormal</text>
<text text-anchor="start" x="1035.66" y="-152.7" font-family="Times,serif" font-size="14.00">sigma ~ HalfNormal</text>
<text text-anchor="start" x="1035.66" y="-136.2" font-family="Times,serif" font-size="14.00">df ~ Gamma</text>
<text text-anchor="start" x="1035.66" y="-119.7" font-family="Times,serif" font-size="14.00">obs ~ StudentT</text>
</g>
</g>
</svg>
